<svg width="280" height="56" viewBox="0 0 280 56" fill="none" xmlns="http://www.w3.org/2000/svg">
<path d="M13.6877 44.1374C21.3866 44.1374 26.045 39.5954 26.045 32.916C26.045 26.2901 20.7487 23.7252 15.8345 21.4809L13.1044 20.2519C8.73628 18.2748 4.58655 16.2443 4.58655 11.6489C4.58655 7.9084 7.48044 4.80916 12.5584 4.80916C17.0904 4.80916 21.0217 7.32061 23.4242 9.77863L24.2978 6.78626C22.0591 5.50381 17.6364 3.9542 13.159 3.9542C5.56938 3.9542 0.600619 8.33588 0.600619 14.2137C0.600619 20.5725 6.33381 23.3511 10.6473 25.2748L13.3774 26.4504C17.418 28.2672 22.1137 30.5649 22.1137 35.6947C22.1137 40.0763 18.51 43.2824 13.2136 43.2824C8.79088 43.2824 3.60372 41.0916 0.982832 37.9389L0 41.3053C2.45708 42.5344 8.93738 44.1374 13.6877 44.1374ZM33.5801 1.8168V43.4962H38.7127V0.213737H38.4942L33.5801 1.8168ZM44.555 25.0611L45.5379 24.2061C49.7968 20.5191 53.2367 18.0076 57.5503 15.229V15.1221H53.7827C51.5987 17.6336 49.1962 19.771 44.9373 23.4046L40.1323 27.4657L57.4411 44.6718H57.7141V37.8855L44.555 25.0611ZM84.0321 15.1221C83.7045 18.3817 82.2303 23.6183 79.2818 30.6183L76.4425 37.2443L66.6142 15.1221H61.0448L73.767 43.6565L71.9651 47.9313C70.2725 51.8855 66.9418 53.3282 64.2663 53.3282C63.3926 53.3282 62.4644 53.2214 61.5908 52.9542L61.2632 56C66.1773 56 70.3817 54.1298 73.0026 47.9847L80.21 30.9924C83.1585 24.0458 84.9057 19.7176 87.199 15.1221H84.0321ZM124.11 44.1374C131.536 44.1374 137.105 40.5573 140.709 34.8397L140.054 34.4657C136.504 39.8092 131.317 41.7863 126.567 41.7863C117.776 41.7863 111.169 34.8397 111.169 23.0305C111.169 12.6107 116.629 4.80916 124.983 4.80916C130.28 4.80916 134.648 8.0687 137.433 12.6107L140.163 10.2061C137.05 6.73282 131.699 3.9542 125.256 3.9542C113.735 3.9542 105.054 11.916 105.054 24.3664C105.054 36.3893 113.189 44.1374 124.11 44.1374ZM160.092 44.1374C168.61 44.1374 174.999 38.2061 174.999 29.1756C174.999 20.0916 168.883 14.4809 160.584 14.4809C152.066 14.4809 145.678 20.4657 145.678 29.4962C145.678 38.5802 151.793 44.1374 160.092 44.1374ZM160.42 43.3893C155.014 43.3893 151.247 37.7252 151.247 29.1756C151.247 20.7328 154.796 15.229 160.256 15.229C165.662 15.229 169.429 20.9466 169.429 29.4962C169.429 37.8855 165.88 43.3893 160.42 43.3893ZM195.311 1.8168C196.894 1.8168 198.696 2.03053 201.153 3.09924L201.535 2.45802C198.75 0.801529 195.802 0 192.963 0C187.284 0 183.571 3.47329 183.571 10.0992V15.1221H179.367V16.2977H183.571V43.4962H188.758V16.2977H197.167L197.931 15.1221H188.758V9.83207C188.758 4.32824 191.215 1.8168 195.311 1.8168ZM217.206 1.8168C218.789 1.8168 220.591 2.03053 223.048 3.09924L223.43 2.45802C220.646 0.801529 217.697 0 214.858 0C209.179 0 205.466 3.47329 205.466 10.0992V15.1221H201.262V16.2977H205.466V43.4962H210.654V16.2977H219.062L219.827 15.1221H210.654V9.83207C210.654 4.32824 213.111 1.8168 217.206 1.8168ZM247.728 27.3053C247.837 19.771 243.797 14.4809 235.934 14.4809C227.526 14.4809 221.246 20.5191 221.246 29.7634C221.246 38.4198 227.034 44.1374 234.842 44.1374C239.975 44.1374 244.288 41.7328 247.401 37.084L246.745 36.7099C244.234 40.2366 240.357 41.8397 237.081 41.8397C231.184 41.8397 226.761 37.1374 226.761 28.2672V27.3053H247.728ZM235.497 15.2824C240.139 15.2824 243.087 19.7176 242.759 26.4504H226.816C227.362 19.9313 230.747 15.2824 235.497 15.2824ZM279.998 27.3053C280.107 19.771 276.067 14.4809 268.204 14.4809C259.795 14.4809 253.516 20.5191 253.516 29.7634C253.516 38.4198 259.304 44.1374 267.112 44.1374C272.244 44.1374 276.558 41.7328 279.67 37.084L279.015 36.7099C276.503 40.2366 272.627 41.8397 269.351 41.8397C263.454 41.8397 259.031 37.1374 259.031 28.2672V27.3053H279.998ZM267.767 15.2824C272.408 15.2824 275.357 19.7176 275.029 26.4504H259.085C259.631 19.9313 263.017 15.2824 267.767 15.2824Z" fill="#222222"/>
</svg>
