<svg width="180" height="36" viewBox="0 0 180 36" fill="none" xmlns="http://www.w3.org/2000/svg">
<path d="M8.17857 28.374C13.1278 28.374 16.7432 25.4542 16.7432 21.1603C16.7432 16.9008 13.3384 15.2519 10.1793 13.8092L8.42428 13.0191C5.61618 11.7481 2.9485 10.4427 2.9485 7.48856C2.9485 5.08397 4.80886 3.09161 8.07327 3.09161C10.9867 3.09161 13.5139 4.7061 15.0584 6.28626L15.62 4.3626C14.1809 3.53817 11.3377 2.54198 8.45938 2.54198C3.58032 2.54198 0.386113 5.35878 0.386113 9.1374C0.386113 13.2252 4.07173 15.0114 6.84472 16.2481L8.59978 17.0038C11.1973 18.1718 14.216 19.6489 14.216 22.9466C14.216 25.7634 11.8993 27.8244 8.49448 27.8244C5.65128 27.8244 2.31667 26.416 0.63182 24.3893L0 26.5534C1.57955 27.3435 5.12477 28.374 8.17857 28.374ZM21.5872 1.16794V27.9618H24.8867V0.137405H24.7463L21.5872 1.16794ZM28.6425 16.1107L29.2744 15.5611C32.0122 13.1908 34.2236 11.5763 36.9966 9.79008V9.72138H34.5746C33.1706 11.3359 31.6261 12.7099 28.8882 15.0458L25.7993 17.6565L36.9264 28.7176H37.1019V24.355L28.6425 16.1107ZM54.0207 9.72138C53.8101 11.8168 52.8623 15.1832 50.9669 19.6832L49.1416 23.9428L42.8234 9.72138H39.2431L47.4216 28.0649L46.2633 30.813C45.1752 33.355 43.034 34.2824 41.314 34.2824C40.7524 34.2824 40.1557 34.2137 39.5941 34.042L39.3835 36C42.5426 36 45.2454 34.7977 46.9302 30.8473L51.5636 19.9237C53.459 15.458 54.5823 12.6756 56.0565 9.72138H54.0207ZM79.7849 28.374C84.5586 28.374 88.139 26.0725 90.4557 22.3969L90.0344 22.1565C87.7528 25.5916 84.4182 26.8626 81.3645 26.8626C75.7132 26.8626 71.4659 22.3969 71.4659 14.8053C71.4659 8.10687 74.976 3.09161 80.3465 3.09161C83.7513 3.09161 86.5594 5.18703 88.3496 8.10687L90.1046 6.56107C88.1038 4.32824 84.664 2.54198 80.522 2.54198C73.1157 2.54198 67.5346 7.6603 67.5346 15.6641C67.5346 23.3931 72.7647 28.374 79.7849 28.374ZM102.917 28.374C108.392 28.374 112.499 24.5611 112.499 18.7557C112.499 12.916 108.568 9.30917 103.232 9.30917C97.7567 9.30917 93.6498 13.1565 93.6498 18.9618C93.6498 24.8015 97.5812 28.374 102.917 28.374ZM103.127 27.8931C99.6521 27.8931 97.2301 24.2519 97.2301 18.7557C97.2301 13.3283 99.5117 9.79008 103.022 9.79008C106.497 9.79008 108.919 13.4656 108.919 18.9618C108.919 24.355 106.637 27.8931 103.127 27.8931ZM125.557 1.16794C126.575 1.16794 127.733 1.30535 129.313 1.99237L129.558 1.58015C127.768 0.515263 125.873 0 124.047 0C120.397 0 118.01 2.23282 118.01 6.49237V9.72138H115.307V10.4771H118.01V27.9618H121.345V10.4771H126.75L127.242 9.72138H121.345V6.32061C121.345 2.78245 122.924 1.16794 125.557 1.16794ZM139.632 1.16794C140.65 1.16794 141.809 1.30535 143.388 1.99237L143.634 1.58015C141.844 0.515263 139.948 0 138.123 0C134.472 0 132.086 2.23282 132.086 6.49237V9.72138H129.383V10.4771H132.086V27.9618H135.42V10.4771H140.826L141.317 9.72138H135.42V6.32061C135.42 2.78245 137 1.16794 139.632 1.16794ZM159.254 17.5534C159.324 12.7099 156.727 9.30917 151.672 9.30917C146.266 9.30917 142.23 13.1908 142.23 19.1336C142.23 24.6985 145.951 28.374 150.97 28.374C154.27 28.374 157.042 26.8282 159.043 23.8397L158.622 23.5992C157.007 25.8664 154.515 26.8969 152.409 26.8969C148.618 26.8969 145.775 23.874 145.775 18.1718V17.5534H159.254ZM151.391 9.82442C154.375 9.82442 156.27 12.6756 156.06 17.0038H145.81C146.161 12.813 148.337 9.82442 151.391 9.82442ZM179.999 17.5534C180.069 12.7099 177.471 9.30917 172.417 9.30917C167.011 9.30917 162.975 13.1908 162.975 19.1336C162.975 24.6985 166.695 28.374 171.715 28.374C175.014 28.374 177.787 26.8282 179.788 23.8397L179.367 23.5992C177.752 25.8664 175.26 26.8969 173.154 26.8969C169.363 26.8969 166.52 23.874 166.52 18.1718V17.5534H179.999ZM172.136 9.82442C175.12 9.82442 177.015 12.6756 176.804 17.0038H166.555C166.906 12.813 169.082 9.82442 172.136 9.82442Z" fill="white"/>
</svg>
